<svg width="1324" height="325" viewBox="0 0 1324 325" fill="none" xmlns="http://www.w3.org/2000/svg">
<path d="M403.5 108C393.38 97.8221 381.341 89.7531 368.081 84.2602C354.821 78.7673 340.603 75.9597 326.25 75.9999C324.85 75.9999 323.44 75.9999 322.04 76.0799C314.841 54.233 300.933 35.2145 282.296 21.7327C263.658 8.25085 241.242 0.993164 218.24 0.993164C195.238 0.993164 172.822 8.25085 154.184 21.7327C135.547 35.2145 121.639 54.233 114.44 76.0799C112.72 75.9999 111 75.9999 109.25 75.9999C80.5602 76.093 53.0583 87.468 32.6848 107.668C12.3112 127.868 0.701168 155.271 0.362364 183.959C0.0235603 212.647 10.9832 240.317 30.874 260.993C50.7648 281.668 77.9904 293.689 106.67 294.46C107.52 294.46 108.39 294.46 109.25 294.46H162C155.681 287.487 149.787 280.14 144.35 272.46H109.25C108.58 272.46 107.91 272.46 107.25 272.46C94.9315 272.179 82.8123 269.292 71.6901 263.989C60.5679 258.686 50.6951 251.087 42.7215 241.693C34.748 232.299 28.8546 221.323 25.4293 209.487C22.004 197.651 21.1245 185.224 22.8487 173.023C24.573 160.823 28.8618 149.126 35.4329 138.703C42.004 128.279 50.7083 119.366 60.9728 112.55C71.2373 105.733 82.8292 101.168 94.9853 99.155C107.141 97.1418 119.586 97.7263 131.5 100.87C133.77 79.4646 143.873 59.654 159.866 45.2467C175.858 30.8394 196.612 22.8525 218.138 22.8215C239.663 22.7905 260.44 30.7176 276.474 45.0787C292.509 59.4398 302.668 79.2212 305 100.62C316.906 97.6307 329.309 97.1875 341.398 99.3194C353.488 101.451 364.991 106.11 375.156 112.992C385.322 119.873 393.921 128.823 400.392 139.255C406.862 149.686 411.058 161.366 412.706 173.531C414.354 185.696 413.417 198.071 409.955 209.849C406.493 221.626 400.585 232.541 392.616 241.879C384.648 251.217 374.799 258.768 363.713 264.04C352.626 269.311 340.552 272.184 328.28 272.47C327.62 272.47 326.95 272.47 326.28 272.47H289.09C286.663 275.803 284.16 279.043 281.58 282.19C278.08 286.477 274.5 290.57 270.84 294.47H326.25C327.11 294.47 327.98 294.47 328.83 294.47C350.214 293.969 370.98 287.201 388.553 275.006C406.125 262.811 419.731 245.726 427.683 225.869C435.634 206.012 437.581 184.258 433.282 163.305C428.983 142.352 418.628 123.122 403.5 108V108ZM215.84 286.94C222.103 282.601 228.011 277.773 233.51 272.5H198.92C204.179 277.742 209.836 282.57 215.84 286.94V286.94Z" fill="#2EB1FF"/>
<path d="M315.48 128.82C285.48 115.88 251.6 109.04 217.34 109.04C183.45 109.04 149.83 115.75 120.11 128.44L104.69 135L107 151.63C109.864 172.409 115.236 192.764 123 212.25C141 257.62 170.43 295.96 203.74 317.45L215.38 324.95L227.18 317.71C243.84 307.48 259.52 293.41 273.79 275.9C288.595 257.558 300.797 237.26 310.05 215.58C318.865 195.374 325.052 174.12 328.46 152.34L331.02 135.56L315.48 128.82ZM289.9 206.82C271.82 248.69 244.37 281.33 215.71 298.93C187.27 280.59 160.47 246.93 143.49 204.11C136.36 186.281 131.41 167.656 128.75 148.64C156.791 136.856 186.923 130.856 217.34 131C248.057 130.856 278.481 136.981 306.75 149C303.616 168.921 297.954 188.362 289.9 206.85V206.82Z" fill="#124F92"/>
<path d="M235.75 182.5C235.753 185.251 235.124 187.967 233.91 190.436C232.696 192.905 230.931 195.062 228.75 196.74V228C228.75 230.519 227.749 232.936 225.967 234.717C224.186 236.499 221.77 237.5 219.25 237.5H217.25C214.73 237.5 212.314 236.499 210.532 234.717C208.751 232.936 207.75 230.519 207.75 228V197.46C205.165 195.733 203.072 193.366 201.674 190.59C200.276 187.814 199.62 184.723 199.771 181.618C199.922 178.514 200.875 175.501 202.536 172.874C204.197 170.247 206.51 168.094 209.25 166.627C211.99 165.159 215.063 164.425 218.171 164.498C221.278 164.571 224.314 165.447 226.982 167.041C229.651 168.635 231.861 170.894 233.397 173.596C234.934 176.298 235.744 179.351 235.75 182.46V182.5Z" fill="#124F92"/>
<path d="M480.19 121L486.31 107.41C493.865 112.633 502.816 115.465 512 115.54C522.69 115.54 527 111.98 527 107.19C527 92.6102 481.69 102.63 481.69 73.6802C481.69 60.4302 492.38 49.4102 514.53 49.4102C524.33 49.4102 534.35 51.7402 541.59 56.3102L536.08 70.0002C529.53 66.1267 522.088 64.0181 514.48 63.8802C503.79 63.8802 499.67 67.8802 499.67 72.7902C499.67 87.1502 544.99 77.2402 544.99 105.86C544.99 118.86 534.19 130.02 511.92 130.02C499.56 130 487.09 126.34 480.19 121Z" fill="#124F92"/>
<path d="M554 50.7398C554 45.2898 558.34 41.0498 564.8 41.0498C571.26 41.0498 575.6 45.0498 575.6 50.4098C575.6 56.1998 571.26 60.4098 564.8 60.4098C558.34 60.4098 554 56.1998 554 50.7398ZM556.11 68.7398H573.48V128.64H556.12L556.11 68.7398Z" fill="#124F92"/>
<path d="M583.85 123.11L589.64 110.64C594.98 114.1 603.11 116.43 610.46 116.43C618.46 116.43 621.46 114.32 621.46 110.98C621.46 101.18 585.27 111.2 585.27 87.2601C585.27 75.9101 595.52 67.8901 613 67.8901C621.24 67.8901 630.37 69.7801 636.05 73.1201L630.26 85.4801C625.001 82.4952 619.047 80.9499 613 81.0001C605.21 81.0001 601.87 83.4501 601.87 86.5601C601.87 96.8101 638.05 86.9001 638.05 110.5C638.05 121.64 627.7 129.5 609.77 129.5C599.66 129.57 589.41 126.79 583.85 123.11Z" fill="#124F92"/>
<path d="M687.4 125.79C683.83 128.35 678.6 129.57 673.26 129.57C659.12 129.57 650.88 122.33 650.88 108.08V83.4798H641.63V70.1198H650.88V55.5298H668.25V70.1198H683.17V83.4798H668.25V107.86C668.25 112.98 671.03 115.77 675.71 115.77C678.223 115.799 680.678 115.017 682.71 113.54L687.4 125.79Z" fill="#124F92"/>
<path d="M753.65 103.63H708.33C710 111.09 716.33 115.63 725.48 115.63C731.82 115.63 736.39 113.74 740.48 109.84L749.72 119.84C744.15 126.18 735.8 129.52 725 129.52C704.29 129.52 690.82 116.52 690.82 98.6798C690.82 80.8398 704.51 67.8398 722.77 67.8398C740.4 67.8898 754 79.6898 754 98.9998C754 100.29 753.76 102.18 753.65 103.63ZM708.11 93.4998H737.61C736.39 85.9298 730.71 80.9998 722.92 80.9998C715.13 80.9998 709.33 85.8098 708.11 93.4998Z" fill="#124F92"/>
<path d="M866.77 94.3901V128.68H849.4V97.0601C849.4 87.3701 845.06 82.9201 838.04 82.9201C830.25 82.9201 824.79 87.9201 824.79 98.6201V128.68H807.43V97.0601C807.43 87.3701 803.31 82.9201 796.07 82.9201C788.39 82.9201 782.93 87.9201 782.93 98.6201V128.68H765.56V68.7801H782.15V75.6801C786.6 70.5601 793.29 67.8901 800.97 67.8901C809.32 67.8901 816.44 71.1201 820.68 77.6901C825.46 71.5601 833.26 67.8901 842.28 67.8901C856.53 67.8901 866.77 76.1301 866.77 94.3901Z" fill="#124F92"/>
<path d="M935.36 94.5001V128.68H919.1V121.22C915.88 126.68 909.64 129.57 900.84 129.57C886.84 129.57 878.46 121.78 878.46 111.42C878.46 100.85 885.92 93.5001 904.18 93.5001H918C918 86.0401 913.55 81.7001 904.19 81.7001C897.85 81.7001 891.28 83.8101 886.94 87.2601L880.7 75.1301C887.27 70.4501 896.96 67.8901 906.53 67.8901C924.78 67.8901 935.36 76.3501 935.36 94.5001ZM918 109.75V103.63H906.08C897.95 103.63 895.39 106.63 895.39 110.63C895.39 114.98 899.06 117.87 905.19 117.87C911 117.88 916 115.21 918 109.75Z" fill="#124F92"/>
<path d="M1043.58 46.0698V128.68H1027V121.78C1022.66 127.01 1016.32 129.57 1008.3 129.57C991.37 129.57 978.35 117.57 978.35 98.7298C978.35 79.8898 991.35 67.8898 1008.3 67.8898C1015.65 67.8898 1021.88 70.2298 1026.22 75.1298V46.0698H1043.58ZM1026.58 98.7298C1026.58 88.3798 1019.9 82.1398 1011.32 82.1398C1002.74 82.1398 995.96 88.3798 995.96 98.7298C995.96 109.08 1002.64 115.32 1011.32 115.32C1020 115.32 1026.55 109.08 1026.55 98.7298H1026.58Z" fill="#124F92"/>
<path d="M1118 103.63H1072.69C1074.36 111.09 1080.69 115.63 1089.83 115.63C1096.18 115.63 1100.74 113.74 1104.83 109.84L1114.08 119.84C1108.51 126.18 1100.16 129.52 1089.36 129.52C1068.65 129.52 1055.17 116.52 1055.17 98.6798C1055.17 80.8398 1068.87 67.8398 1087.17 67.8398C1104.76 67.8398 1118.35 79.6398 1118.35 98.8998C1118.3 100.29 1118.07 102.18 1118 103.63ZM1072.42 93.4998H1101.93C1100.7 85.9298 1095 80.9998 1087.23 80.9998C1079.46 80.9998 1073.65 85.8098 1072.42 93.4998Z" fill="#124F92"/>
<path d="M528.248 208.896L511.616 248.424L495.524 208.896H478.136L502.544 267H519.932L544.448 208.896H528.248Z" fill="#124F92"/>
<path d="M559.747 200.796C566.011 200.796 570.223 196.692 570.223 191.076C570.223 185.892 566.011 182.004 559.747 182.004C553.483 182.004 549.271 186.108 549.271 191.4C549.271 196.692 553.483 200.796 559.747 200.796ZM551.323 267H568.171V208.896H551.323V267Z" fill="#124F92"/>
<path d="M626.143 186.864V215.052C621.931 210.3 615.883 208.032 608.755 208.032C592.339 208.032 579.703 219.696 579.703 237.948C579.703 256.2 592.339 267.864 608.755 267.864C616.531 267.864 622.687 265.38 626.899 260.304V267H642.991V186.864H626.143ZM611.671 254.04C603.247 254.04 596.767 247.992 596.767 237.948C596.767 227.904 603.247 221.856 611.671 221.856C619.987 221.856 626.467 227.904 626.467 237.948C626.467 247.992 619.987 254.04 611.671 254.04Z" fill="#124F92"/>
<path d="M715.501 238.164C715.501 219.48 702.325 208.032 685.261 208.032C667.549 208.032 654.265 220.56 654.265 237.948C654.265 255.228 667.333 267.864 687.421 267.864C697.897 267.864 705.997 264.624 711.397 258.468L702.433 248.748C698.437 252.528 694.009 254.364 687.853 254.364C678.997 254.364 672.841 249.936 671.221 242.7H715.177C715.285 241.296 715.501 239.46 715.501 238.164ZM685.369 220.776C692.929 220.776 698.437 225.528 699.625 232.872H671.005C672.193 225.42 677.701 220.776 685.369 220.776Z" fill="#124F92"/>
<path d="M754.365 267.864C772.833 267.864 786.225 255.444 786.225 237.948C786.225 220.452 772.833 208.032 754.365 208.032C735.897 208.032 722.397 220.452 722.397 237.948C722.397 255.444 735.897 267.864 754.365 267.864ZM754.365 254.04C745.941 254.04 739.461 247.992 739.461 237.948C739.461 227.904 745.941 221.856 754.365 221.856C762.789 221.856 769.161 227.904 769.161 237.948C769.161 247.992 762.789 254.04 754.365 254.04Z" fill="#124F92"/>
<path d="M837.377 208.896L820.745 248.424L804.653 208.896H787.265L811.673 267H829.061L853.577 208.896H837.377Z" fill="#124F92"/>
<path d="M868.876 200.796C875.14 200.796 879.352 196.692 879.352 191.076C879.352 185.892 875.14 182.004 868.876 182.004C862.612 182.004 858.4 186.108 858.4 191.4C858.4 196.692 862.612 200.796 868.876 200.796ZM860.452 267H877.3V208.896H860.452V267Z" fill="#124F92"/>
<path d="M936.892 208.896V216.348C932.464 210.732 925.768 208.032 917.668 208.032C901.576 208.032 888.616 219.156 888.616 236.112C888.616 253.068 901.576 264.192 917.668 264.192C925.228 264.192 931.6 261.816 936.028 256.956V259.44C936.028 269.916 930.844 275.316 918.964 275.316C911.512 275.316 903.412 272.724 898.444 268.728L891.748 280.824C898.552 286.116 909.244 288.816 920.26 288.816C941.212 288.816 952.876 278.88 952.876 257.28V208.896H936.892ZM921.016 250.368C912.16 250.368 905.68 244.644 905.68 236.112C905.68 227.58 912.16 221.856 921.016 221.856C929.872 221.856 936.244 227.58 936.244 236.112C936.244 244.644 929.872 250.368 921.016 250.368Z" fill="#124F92"/>
<path d="M976.981 200.796C983.245 200.796 987.457 196.692 987.457 191.076C987.457 185.892 983.245 182.004 976.981 182.004C970.717 182.004 966.505 186.108 966.505 191.4C966.505 196.692 970.717 200.796 976.981 200.796ZM968.557 267H985.405V208.896H968.557V267Z" fill="#124F92"/>
<path d="M1001.04 267H1017.89V186.864H1001.04V267Z" fill="#124F92"/>
<path d="M1056.96 208.032C1047.67 208.032 1038.28 210.516 1031.91 215.052L1037.95 226.824C1042.17 223.476 1048.54 221.424 1054.69 221.424C1063.77 221.424 1068.09 225.636 1068.09 232.872H1054.69C1036.98 232.872 1029.75 240 1029.75 250.26C1029.75 260.304 1037.85 267.864 1051.45 267.864C1059.99 267.864 1066.03 265.056 1069.17 259.764V267H1084.93V233.844C1084.93 216.24 1074.67 208.032 1056.96 208.032ZM1055.67 256.524C1049.73 256.524 1046.16 253.716 1046.16 249.504C1046.16 245.616 1048.65 242.7 1056.53 242.7H1068.09V248.64C1066.14 253.932 1061.28 256.524 1055.67 256.524Z" fill="#124F92"/>
<path d="M1135.5 208.032C1127.61 208.032 1120.81 210.732 1116.27 215.7V208.896H1100.18V267H1117.03V238.272C1117.03 227.58 1122.86 222.612 1130.96 222.612C1138.41 222.612 1142.73 226.932 1142.73 236.328V267H1159.58V233.736C1159.58 216.024 1149.21 208.032 1135.5 208.032Z" fill="#124F92"/>
<path d="M1203.57 267.864C1215.77 267.864 1225.38 262.464 1229.59 253.176L1216.53 246.048C1213.39 251.664 1208.75 254.04 1203.46 254.04C1194.93 254.04 1188.23 248.1 1188.23 237.948C1188.23 227.796 1194.93 221.856 1203.46 221.856C1208.75 221.856 1213.39 224.34 1216.53 229.848L1229.59 222.828C1225.38 213.324 1215.77 208.032 1203.57 208.032C1184.67 208.032 1171.17 220.452 1171.17 237.948C1171.17 255.444 1184.67 267.864 1203.57 267.864Z" fill="#124F92"/>
<path d="M1247.72 200.796C1253.98 200.796 1258.2 196.692 1258.2 191.076C1258.2 185.892 1253.98 182.004 1247.72 182.004C1241.46 182.004 1237.24 186.108 1237.24 191.4C1237.24 196.692 1241.46 200.796 1247.72 200.796ZM1239.3 267H1256.14V208.896H1239.3V267Z" fill="#124F92"/>
<path d="M1295.22 208.032C1285.93 208.032 1276.53 210.516 1270.16 215.052L1276.21 226.824C1280.42 223.476 1286.79 221.424 1292.95 221.424C1302.02 221.424 1306.34 225.636 1306.34 232.872H1292.95C1275.24 232.872 1268 240 1268 250.26C1268 260.304 1276.1 267.864 1289.71 267.864C1298.24 267.864 1304.29 265.056 1307.42 259.764V267H1323.19V233.844C1323.19 216.24 1312.93 208.032 1295.22 208.032ZM1293.92 256.524C1287.98 256.524 1284.42 253.716 1284.42 249.504C1284.42 245.616 1286.9 242.7 1294.78 242.7H1306.34V248.64C1304.4 253.932 1299.54 256.524 1293.92 256.524Z" fill="#124F92"/>
</svg>
