<svg xmlns="http://www.w3.org/2000/svg" viewBox="0 0 1275.07 323.95"><defs><style>.cls-1{fill:#2eb1ff;}.cls-2{fill:#124f92;}</style></defs><g id="Capa_2" data-name="Capa 2"><g id="Capa_1-2" data-name="Capa 1"><path class="cls-1" d="M403.5,107a108.51,108.51,0,0,0-77.25-32c-1.4,0-2.81,0-4.21.08a109.29,109.29,0,0,0-207.6,0C112.72,75,111,75,109.25,75a109.25,109.25,0,0,0-2.58,218.46c.85,0,1.72,0,2.58,0H162a234.92,234.92,0,0,1-17.65-22H109.25c-.67,0-1.34,0-2,0A87.25,87.25,0,1,1,131.5,99.87,87.25,87.25,0,0,1,305,99.62a87.25,87.25,0,1,1,23.28,171.85c-.66,0-1.33,0-2,0H289.09q-3.64,5-7.51,9.72-5.25,6.43-10.74,12.28h55.41c.86,0,1.73,0,2.58,0A109.24,109.24,0,0,0,403.5,107ZM215.84,285.94a144.08,144.08,0,0,0,17.67-14.44H198.92A144,144,0,0,0,215.84,285.94Z"/><path class="cls-2" d="M315.48,127.82c-30-12.94-63.88-19.78-98.14-19.78-33.89,0-67.51,6.71-97.23,19.4L104.69,134,107,150.63A259.49,259.49,0,0,0,123,211.25c18,45.37,47.43,83.71,80.74,105.2l11.64,7.5,11.8-7.24c16.66-10.23,32.34-24.3,46.61-41.81a256.07,256.07,0,0,0,36.26-60.32,257.81,257.81,0,0,0,18.41-63.24l2.56-16.78Zm-25.58,78c-18.08,41.87-45.53,74.51-74.19,92.11-28.44-18.34-55.24-52-72.22-94.82a238.28,238.28,0,0,1-14.74-55.47A225.9,225.9,0,0,1,217.34,130a225.82,225.82,0,0,1,89.41,18A237.11,237.11,0,0,1,289.9,205.85Z"/><path class="cls-2" d="M235.75,181.5a17.94,17.94,0,0,1-7,14.24V227a9.5,9.5,0,0,1-9.5,9.5h-2a9.5,9.5,0,0,1-9.5-9.5V196.46a18,18,0,1,1,28-15Z"/><path class="cls-2" d="M480.19,120l6.12-13.59A45.84,45.84,0,0,0,512,114.54c10.69,0,15-3.56,15-8.35,0-14.58-45.31-4.56-45.31-33.51,0-13.25,10.69-24.27,32.84-24.27,9.8,0,19.82,2.33,27.06,6.9L536.08,69a44,44,0,0,0-21.6-6.12c-10.69,0-14.81,4-14.81,8.91,0,14.36,45.32,4.45,45.32,33.07,0,13-10.8,24.16-33.07,24.16C499.56,129,487.09,125.34,480.19,120Z"/><path class="cls-2" d="M554,49.74c0-5.45,4.34-9.69,10.8-9.69s10.8,4,10.8,9.36c0,5.79-4.34,10-10.8,10S554,55.2,554,49.74Zm2.11,18h17.37v59.9H556.12Z"/><path class="cls-2" d="M583.85,122.11l5.79-12.47c5.34,3.46,13.47,5.79,20.82,5.79,8,0,11-2.11,11-5.45,0-9.8-36.19.22-36.19-23.72,0-11.35,10.25-19.37,27.73-19.37,8.24,0,17.37,1.89,23.05,5.23l-5.79,12.36A34.39,34.39,0,0,0,613,80c-7.79,0-11.13,2.45-11.13,5.56,0,10.25,36.18.34,36.18,23.94,0,11.14-10.35,19-28.28,19C599.66,128.57,589.41,125.79,583.85,122.11Z"/><path class="cls-2" d="M687.4,124.79c-3.57,2.56-8.8,3.78-14.14,3.78-14.14,0-22.38-7.24-22.38-21.49V82.48h-9.25V69.12h9.25V54.53h17.37V69.12h14.92V82.48H668.25v24.38c0,5.12,2.78,7.91,7.46,7.91a11.67,11.67,0,0,0,7-2.23Z"/><path class="cls-2" d="M753.65,102.63H708.33c1.67,7.46,8,12,17.15,12,6.34,0,10.91-1.89,15-5.79l9.24,10c-5.57,6.34-13.92,9.68-24.72,9.68-20.71,0-34.18-13-34.18-30.84s13.69-30.84,31.95-30.84C740.4,66.89,754,78.69,754,98,754,99.29,753.76,101.18,753.65,102.63ZM708.11,92.5h29.5C736.39,84.93,730.71,80,722.92,80S709.33,84.81,708.11,92.5Z"/><path class="cls-2" d="M866.77,93.39v34.29H849.4V96.06c0-9.69-4.34-14.14-11.36-14.14-7.79,0-13.25,5-13.25,15.7v30.06H807.43V96.06c0-9.69-4.12-14.14-11.36-14.14-7.68,0-13.14,5-13.14,15.7v30.06H765.56V67.78h16.59v6.9c4.45-5.12,11.14-7.79,18.82-7.79,8.35,0,15.47,3.23,19.71,9.8,4.78-6.13,12.58-9.8,21.6-9.8C856.53,66.89,866.77,75.13,866.77,93.39Z"/><path class="cls-2" d="M935.36,93.5v34.18H919.1v-7.46c-3.22,5.46-9.46,8.35-18.26,8.35-14,0-22.38-7.79-22.38-18.15,0-10.57,7.46-17.92,25.72-17.92H918c0-7.46-4.45-11.8-13.81-11.8-6.34,0-12.91,2.11-17.25,5.56l-6.24-12.13c6.57-4.68,16.26-7.24,25.83-7.24C924.78,66.89,935.36,75.35,935.36,93.5ZM918,108.75v-6.12H906.08c-8.13,0-10.69,3-10.69,7,0,4.35,3.67,7.24,9.8,7.24C911,116.88,916,114.21,918,108.75Z"/><path class="cls-2" d="M1043.58,45.07v82.61H1027v-6.9c-4.34,5.23-10.68,7.79-18.7,7.79-16.93,0-29.95-12-29.95-30.84s13-30.84,29.95-30.84c7.35,0,13.58,2.34,17.92,7.24V45.07Zm-17,52.66c0-10.35-6.68-16.59-15.26-16.59s-15.36,6.24-15.36,16.59,6.68,16.59,15.36,16.59S1026.55,108.08,1026.55,97.73Z"/><path class="cls-2" d="M1118,102.63h-45.31c1.67,7.46,8,12,17.14,12,6.35,0,10.91-1.89,15-5.79l9.25,10c-5.57,6.34-13.92,9.68-24.72,9.68-20.71,0-34.19-13-34.19-30.84s13.7-30.84,32-30.84c17.59,0,31.18,11.8,31.18,31.06C1118.3,99.29,1118.07,101.18,1118,102.63ZM1072.42,92.5h29.51C1100.7,84.93,1095,80,1087.23,80S1073.65,84.81,1072.42,92.5Z"/><path class="cls-2" d="M544.54,201.39l-25.27,59.9H501.34l-25.16-59.9h17.93l16.59,40.75,17.14-40.75Z"/><path class="cls-2" d="M549.55,183.35c0-5.45,4.35-9.68,10.8-9.68s10.81,4,10.81,9.35c0,5.79-4.35,10-10.81,10S549.55,188.81,549.55,183.35Zm2.12,18H569v59.9H551.67Z"/><path class="cls-2" d="M646.2,178.68v82.61H629.61v-6.9c-4.34,5.23-10.69,7.8-18.71,7.8-16.92,0-29.95-12-29.95-30.85s13-30.84,29.95-30.84c7.35,0,13.59,2.34,17.93,7.24V178.68Zm-17,52.66c0-10.35-6.69-16.59-15.26-16.59s-15.36,6.24-15.36,16.59,6.68,16.59,15.36,16.59S629.17,241.7,629.17,231.34Z"/><path class="cls-2" d="M720.58,236.24H675.26c1.67,7.46,8,12,17.15,12,6.34,0,10.91-1.9,15-5.79l9.24,10c-5.57,6.35-13.92,9.69-24.72,9.69-20.71,0-34.18-13-34.18-30.85s13.69-30.84,32-30.84c17.59,0,31.17,11.8,31.17,31.07C720.91,232.9,720.69,234.79,720.58,236.24ZM675,226.11h29.5c-1.22-7.57-6.9-12.47-14.69-12.47S676.26,218.43,675,226.11Z"/><path class="cls-2" d="M790.84,201.39l-25.28,59.9H747.63l-25.16-59.9H740.4L757,242.14l17.14-40.75Z"/><path class="cls-2" d="M795.85,183.35c0-5.45,4.34-9.68,10.8-9.68s10.8,4,10.8,9.35c0,5.79-4.35,10-10.8,10S795.85,188.81,795.85,183.35Zm2.11,18h17.37v59.9H798Z"/><path class="cls-2" d="M893.27,201.39v49.88c0,22.27-12,32.52-33.62,32.52-11.36,0-22.38-2.79-29.4-8.24l6.91-12.47c5.12,4.12,13.47,6.79,21.15,6.79,12.25,0,17.59-5.57,17.59-16.37v-2.56c-4.56,5-11.13,7.46-18.93,7.46-16.59,0-30-11.47-30-28.95s13.36-28.95,30-28.95c8.36,0,15.26,2.78,19.82,8.57v-7.68Zm-17.15,28.06c0-8.8-6.56-14.7-15.69-14.7s-15.81,5.9-15.81,14.7,6.68,14.7,15.81,14.7S876.12,238.25,876.12,229.45Z"/><path class="cls-2" d="M907.3,183.35c0-5.45,4.34-9.68,10.8-9.68s10.8,4,10.8,9.35c0,5.79-4.34,10-10.8,10S907.3,188.81,907.3,183.35Zm2.12,18h17.37v59.9H909.42Z"/><path class="cls-2" d="M942.93,178.68H960.3v82.61H942.93Z"/><path class="cls-2" d="M1029.45,227.11v34.18h-16.26v-7.46c-3.23,5.46-9.47,8.36-18.26,8.36-14,0-22.38-7.8-22.38-18.15,0-10.58,7.46-17.93,25.72-17.93h13.81c0-7.46-4.46-11.8-13.81-11.8-6.35,0-12.92,2.11-17.26,5.56l-6.23-12.13c6.56-4.68,16.25-7.24,25.83-7.24C1018.87,200.5,1029.45,209,1029.45,227.11Zm-17.37,15.26v-6.13h-11.92c-8.13,0-10.69,3-10.69,7,0,4.34,3.68,7.23,9.8,7.23C1005.06,250.49,1010.07,247.82,1012.08,242.37Z"/><path class="cls-2" d="M1106.38,227v34.29H1089V229.67c0-9.68-4.45-14.14-12.13-14.14-8.35,0-14.37,5.12-14.37,16.15v29.61h-17.37v-59.9h16.59v7c4.68-5.13,11.69-7.91,19.82-7.91C1095.69,200.5,1106.38,208.74,1106.38,227Z"/><path class="cls-2" d="M1118.3,231.34c0-18,13.91-30.84,33.4-30.84,12.58,0,22.49,5.46,26.83,15.26L1165.06,223c-3.23-5.68-8-8.24-13.47-8.24-8.8,0-15.7,6.13-15.7,16.59s6.9,16.59,15.7,16.59c5.45,0,10.24-2.45,13.47-8.24l13.47,7.35c-4.34,9.58-14.25,15.15-26.83,15.15C1132.21,262.19,1118.3,249.38,1118.3,231.34Z"/><path class="cls-2" d="M1186.44,183.35c0-5.45,4.34-9.68,10.8-9.68s10.8,4,10.8,9.35c0,5.79-4.34,10-10.8,10S1186.44,188.81,1186.44,183.35Zm2.11,18h17.37v59.9h-17.37Z"/><path class="cls-2" d="M1275.07,227.11v34.18h-16.26v-7.46c-3.23,5.46-9.46,8.36-18.26,8.36-14,0-22.38-7.8-22.38-18.15,0-10.58,7.46-17.93,25.72-17.93h13.81c0-7.46-4.46-11.8-13.81-11.8-6.35,0-12.91,2.11-17.26,5.56l-6.23-12.13c6.57-4.68,16.25-7.24,25.83-7.24C1264.49,200.5,1275.07,209,1275.07,227.11Zm-17.37,15.26v-6.13h-11.92c-8.12,0-10.68,3-10.68,7,0,4.34,3.67,7.23,9.79,7.23C1250.68,250.49,1255.69,247.82,1257.7,242.37Z"/></g></g></svg>