<svg xmlns="http://www.w3.org/2000/svg" viewBox="0 0 435.5 323.95"><defs><style>.cls-1{fill:#2eb1ff;}.cls-2{fill:#124f92;}</style></defs><g id="Capa_2" data-name="Capa 2"><g id="Capa_1-2" data-name="Capa 1"><path class="cls-1" d="M403.5,107a108.51,108.51,0,0,0-77.25-32c-1.4,0-2.81,0-4.21.08a109.29,109.29,0,0,0-207.6,0C112.72,75,111,75,109.25,75a109.25,109.25,0,0,0-2.58,218.46c.85,0,1.72,0,2.58,0H162a234.92,234.92,0,0,1-17.65-22H109.25c-.67,0-1.34,0-2,0A87.25,87.25,0,1,1,131.5,99.87,87.25,87.25,0,0,1,305,99.62a87.25,87.25,0,1,1,23.28,171.85c-.66,0-1.33,0-2,0H289.09q-3.64,5-7.51,9.72-5.25,6.43-10.74,12.28h55.41c.86,0,1.73,0,2.58,0A109.24,109.24,0,0,0,403.5,107ZM215.84,285.94a144.08,144.08,0,0,0,17.67-14.44H198.92A144,144,0,0,0,215.84,285.94Z"/><path class="cls-2" d="M315.48,127.82c-30-12.94-63.88-19.78-98.14-19.78-33.89,0-67.51,6.71-97.23,19.4L104.69,134,107,150.63A259.49,259.49,0,0,0,123,211.25c18,45.37,47.43,83.71,80.74,105.2l11.64,7.5,11.8-7.24c16.66-10.23,32.34-24.3,46.61-41.81a256.07,256.07,0,0,0,36.26-60.32,257.81,257.81,0,0,0,18.41-63.24l2.56-16.78Zm-25.58,78c-18.08,41.87-45.53,74.51-74.19,92.11-28.44-18.34-55.24-52-72.22-94.82a238.28,238.28,0,0,1-14.74-55.47A225.9,225.9,0,0,1,217.34,130a225.82,225.82,0,0,1,89.41,18A237.11,237.11,0,0,1,289.9,205.85Z"/><path class="cls-2" d="M235.75,181.5a17.94,17.94,0,0,1-7,14.24V227a9.5,9.5,0,0,1-9.5,9.5h-2a9.5,9.5,0,0,1-9.5-9.5V196.46a18,18,0,1,1,28-15Z"/></g></g></svg>